<svg xmlns="http://www.w3.org/2000/svg">
<symbol id="it-no_pdf" viewBox="0 0 82 82">
<path d="M 37.945312,0.11467137 A 41.009571,41.009571 0 0 0 0,41.009202 a 41.009768,41.009768 0 0 0 82.019536,0 A 41.009571,41.009571 0 0 0 37.945312,0.11467137 Z M 38.318359,5.2318584 A 35.88337,35.88337 0 0 1 64.507812,13.886155 L 13.89258,64.507248 v -0.0039 A 35.88337,35.88337 0 0 1 38.318359,5.2318584 Z M 26.67969,12.350998 a 7.1645648,7.1645648 0 0 0 -7.16407,7.164063 v 36.541016 l 18.535161,-18.53711 c -0.03686,-0.692626 -0.0031,-1.357991 0.128907,-1.972656 0.268666,-1.264541 0.981515,-2.411877 2.332031,-2.949219 0.513157,-0.206877 1.060508,-0.344669 1.607422,-0.335937 0.1823,0.0029 0.36402,0.02204 0.544921,0.06055 a 2.5075977,2.5075977 0 0 1 0.398438,0.183593 l 4.796875,-4.798828 a 3.5822824,3.5822824 0 0 1 -1.476563,-2.818359 v -7.164063 l 5.730469,5.730469 3.056641,-3.058594 -6.996094,-6.996093 a 3.5822824,3.5822824 0 0 0 -2.533203,-1.048829 z m 41.447263,5.160157 A 35.729584,35.729584 0 0 1 76.892578,41.009202 35.88337,35.88337 0 0 1 17.51172,68.132248 Z m -6.539062,9.36914 -18.28125,18.283203 a 39.405106,39.405106 0 0 0 2.998047,5.058594 20.777238,20.777238 0 0 1 4.78125,0.179688 c 1.30394,0.232848 2.629857,0.698804 3.439453,1.666015 a 3.0091172,3.0091172 0 0 1 0.716797,1.855469 c 0.02507,0.691376 -0.171735,1.367237 -0.494141,2.015625 -0.300912,0.605406 -0.712329,1.128424 -1.267578,1.490235 a 3.0807629,3.0807629 0 0 1 -1.828125,0.496093 c -1.18573,-0.05015 -2.342668,-0.706043 -3.345703,-1.49414 -1.074679,-0.849001 -2.185086,-2.032293 -3.259766,-3.404297 a 41.912704,41.912704 0 0 0 -7.154297,1.455078 c -1.210807,2.088461 -2.463355,3.97367 -3.65625,5.410156 -1.042439,1.253794 -2.179188,2.348761 -3.318358,2.814453 -0.60182,0.250759 -1.3366,0.376093 -2.07813,0.107422 -0.74512,-0.272253 -1.24596,-0.855194 -1.56836,-1.5 -0.01338,-0.0267 -0.0205,-0.05338 -0.0332,-0.08008 l -5.93359,5.933594 a 7.1645648,7.1645648 0 0 0 5.375,2.5 h 28.658201 a 7.1645648,7.1645648 0 0 0 7.166015,-7.164061 V 29.212327 a 3.5822824,3.5822824 0 0 0 -0.916015,-2.332032 z m -20.140625,20.59375 a 75.22793,75.22793 0 0 1 -1.791016,3.761719 c 0.425098,-0.09792 0.850294,-0.190934 1.275391,-0.279297 0.783321,-0.15762 1.563248,-0.29357 2.341797,-0.408203 a 42.987389,42.987389 0 0 1 -1.826172,-3.074219 z m 6.970703,5.376953 a 14.32913,14.32913 0 0 0 1.558593,1.46875 c 0.859748,0.680633 1.460798,0.907219 1.783204,0.917969 a 0.35822824,0.35822824 0 0 0 0.248046,-0.05469 1.0746847,1.0746847 0 0 0 0.335938,-0.44336 1.5762043,1.5762043 0 0 0 0.214844,-0.716796 0.35822824,0.35822824 0 0 0 -0.09375,-0.228516 c -0.186278,-0.222101 -0.71989,-0.543857 -1.855469,-0.748047 -0.64003,-0.112242 -1.369874,-0.178593 -2.191406,-0.195313 z M 33.78125,56.005295 c -0.594654,0.272254 -1.143023,0.555428 -1.64453,0.851563 -1.17499,0.694957 -1.93864,1.371819 -2.31836,1.96289 -0.33674,0.515849 -0.34319,0.895012 -0.14258,1.289063 a 1.0746847,1.0746847 0 0 0 0.0918,0.158203 l 0.12695,-0.04297 c 0.49077,-0.200603 1.2704,-0.841603 2.27344,-2.048828 a 28.658259,28.658259 0 0 0 1.61328,-2.169921 z" />
 </symbol>
</svg>
