<?xml version="1.0" encoding="utf-8"?>
<!-- Generator: Adobe Illustrator 27.6.1, SVG Export Plug-In . SVG Version: 6.00 Build 0)  -->
<svg version="1.1" id="Livello_1" xmlns="http://www.w3.org/2000/svg" xmlns:xlink="http://www.w3.org/1999/xlink" x="0px" y="0px"
	 viewBox="0 0 66 66" style="enable-background:new 0 0 66 66;" xml:space="preserve">
<style type="text/css">
	.st0{fill:#0F334E;}
</style>
<g>
	<path class="st0" d="M33.1,0C15,0,0.3,14.7,0.3,32.8S15,65.7,33.1,65.7S66,51,66,32.8S51.3,0,33.1,0z M33.1,61.2
		c-15.7,0-28.4-12.7-28.4-28.4S17.5,4.4,33.1,4.4s28.4,12.7,28.4,28.4S48.8,61.2,33.1,61.2z"/>
	<path class="st0" d="M34.3,15v13.5c-0.4-0.1-0.8-0.2-1.2-0.2c-0.4,0-0.8,0.1-1.2,0.2V15c0-0.7,0.5-1.2,1.2-1.2
		c0.3,0,0.6,0.1,0.8,0.3C34.2,14.4,34.3,14.7,34.3,15z"/>
	<circle class="st0" cx="33.1" cy="32.8" r="2.6"/>
	<g>
		<path class="st0" d="M33.1,9.9C33.6,9.9,34,9.5,34,9V6.5c0-0.5-0.4-0.8-0.8-0.8c-0.5,0-0.8,0.4-0.8,0.8V9
			C32.3,9.5,32.7,9.9,33.1,9.9z"/>
		<path class="st0" d="M9.4,32H6.9C6.4,32,6,32.4,6,32.9c0,0.5,0.4,0.8,0.8,0.8h2.5c0.5,0,0.8-0.4,0.8-0.8C10.2,32.4,9.9,32,9.4,32z
			"/>
		<path class="st0" d="M33.2,55.8c-0.5,0-0.8,0.4-0.8,0.8v2.5c0,0.5,0.4,0.8,0.8,0.8s0.8-0.4,0.8-0.8v-2.5
			C34.1,56.1,33.7,55.8,33.2,55.8z"/>
		<path class="st0" d="M59.5,31.9H57c-0.5,0-0.8,0.4-0.8,0.8c0,0.5,0.4,0.8,0.8,0.8h2.5c0.5,0,0.8-0.4,0.8-0.8
			C60.3,32.3,60,31.9,59.5,31.9z"/>
	</g>
</g>
</svg>
