<?xml version="1.0" encoding="UTF-8" standalone="no"?>
<!-- Generator: Adobe Illustrator 27.6.1, SVG Export Plug-In . SVG Version: 6.00 Build 0)  -->

<svg
   version="1.1"
   id="Livello_1"
   x="0px"
   y="0px"
   viewBox="0 0 66 66"
   style="enable-background:new 0 0 66 66;"
   xml:space="preserve"
   sodipodi:docname="ore17.svg"
   inkscape:version="1.3.2 (091e20e, 2023-11-25, custom)"
   xmlns:inkscape="http://www.inkscape.org/namespaces/inkscape"
   xmlns:sodipodi="http://sodipodi.sourceforge.net/DTD/sodipodi-0.dtd"
   xmlns="http://www.w3.org/2000/svg"
   xmlns:svg="http://www.w3.org/2000/svg"><defs
   id="defs8" /><sodipodi:namedview
   id="namedview8"
   pagecolor="#ffffff"
   bordercolor="#000000"
   borderopacity="0.25"
   inkscape:showpageshadow="2"
   inkscape:pageopacity="0.0"
   inkscape:pagecheckerboard="0"
   inkscape:deskcolor="#d1d1d1"
   inkscape:zoom="12.590909"
   inkscape:cx="32.960289"
   inkscape:cy="33"
   inkscape:window-width="1920"
   inkscape:window-height="1027"
   inkscape:window-x="-8"
   inkscape:window-y="-8"
   inkscape:window-maximized="1"
   inkscape:current-layer="g8" />
<style
   type="text/css"
   id="style1">
	.st0{fill:#0F334E;}
</style>
<g
   id="g8">
	<path
   class="st0"
   d="M32.8-0.1C14.7-0.1,0,14.6,0,32.8s14.7,32.9,32.9,32.9s32.9-14.7,32.9-32.9S51-0.1,32.8-0.1z M32.8,61.2   c-15.7,0-28.4-12.7-28.4-28.4S17.2,4.4,32.8,4.4s28.4,12.7,28.4,28.4S48.5,61.2,32.8,61.2z"
   id="path1" />
	<path
   class="st0"
   d="M34,14.9v13.5c-0.4-0.1-0.8-0.2-1.2-0.2c-0.4,0-0.8,0.1-1.2,0.2V14.9c0-0.7,0.5-1.2,1.2-1.2   c0.3,0,0.6,0.1,0.8,0.3C33.9,14.3,34,14.6,34,14.9z"
   id="path2" />
	<path
   class="st0"
   d="m 38.266732,46.619047 c -0.447139,-0.0082 -0.890165,-0.240014 -1.105511,-0.691264 l -3.521808,-7.937057 c 0.763424,-0.164876 1.484601,-0.464716 2.074927,-0.945874 l 3.521808,7.937056 c 0.257582,0.586218 0.02169,1.25281 -0.564524,1.510402 -0.181322,0.130852 -0.316286,0.173099 -0.404891,0.12674 z"
   id="path3" />
	<circle
   class="st0"
   cx="32.8"
   cy="32.8"
   r="2.6"
   id="circle3" />
	<g
   id="g7">
		<path
   class="st0"
   d="M32.8,9.8c0.5,0,0.8-0.4,0.8-0.8V6.4c0-0.5-0.4-0.8-0.8-0.8C32.4,5.6,32,6,32,6.4V9C32,9.4,32.4,9.8,32.8,9.8    z"
   id="path4" />
		<path
   class="st0"
   d="M9.1,32H6.6c-0.5,0-0.8,0.4-0.8,0.8c0,0.5,0.4,0.8,0.8,0.8h2.5c0.5,0,0.8-0.4,0.8-0.8C9.9,32.3,9.6,32,9.1,32    z"
   id="path5" />
		<path
   class="st0"
   d="M32.9,55.7c-0.5,0-0.8,0.4-0.8,0.8v2.5c0,0.5,0.4,0.8,0.8,0.8c0.5,0,0.8-0.4,0.8-0.8v-2.5    C33.8,56.1,33.4,55.7,32.9,55.7z"
   id="path6" />
		<path
   class="st0"
   d="M59.2,31.9h-2.5c-0.5,0-0.8,0.4-0.8,0.8c0,0.5,0.4,0.8,0.8,0.8h2.5c0.5,0,0.8-0.4,0.8-0.8    C60.1,32.2,59.7,31.9,59.2,31.9z"
   id="path7" />
	</g>
</g>
</svg>
