<?xml version="1.0" encoding="UTF-8" standalone="no"?>
<!-- Generator: Adobe Illustrator 27.6.1, SVG Export Plug-In . SVG Version: 6.00 Build 0)  -->

<svg
   version="1.1"
   id="Livello_1"
   x="0px"
   y="0px"
   viewBox="0 0 66 66"
   style="enable-background:new 0 0 66 66;"
   xml:space="preserve"
   sodipodi:docname="ore22.svg"
   inkscape:version="1.3.2 (091e20e, 2023-11-25, custom)"
   xmlns:inkscape="http://www.inkscape.org/namespaces/inkscape"
   xmlns:sodipodi="http://sodipodi.sourceforge.net/DTD/sodipodi-0.dtd"
   xmlns="http://www.w3.org/2000/svg"
   xmlns:svg="http://www.w3.org/2000/svg"><defs
   id="defs8" /><sodipodi:namedview
   id="namedview8"
   pagecolor="#ffffff"
   bordercolor="#000000"
   borderopacity="0.25"
   inkscape:showpageshadow="2"
   inkscape:pageopacity="0.0"
   inkscape:pagecheckerboard="0"
   inkscape:deskcolor="#d1d1d1"
   inkscape:zoom="12.590909"
   inkscape:cx="32.960289"
   inkscape:cy="33"
   inkscape:window-width="1920"
   inkscape:window-height="1027"
   inkscape:window-x="-8"
   inkscape:window-y="-8"
   inkscape:window-maximized="1"
   inkscape:current-layer="g8" />
<style
   type="text/css"
   id="style1">
	.st0{fill:#0F334E;}
</style>
<g
   id="g8">
	<path
   class="st0"
   d="M33,0C14.8,0,0,14.8,0,33s14.8,33,33,33s33-14.8,33-33S51.2,0,33,0z M33,61.5C17.2,61.5,4.5,48.8,4.5,33   S17.2,4.5,33,4.5S61.5,17.2,61.5,33S48.8,61.5,33,61.5z"
   id="path1" />
	<path
   class="st0"
   d="M34.2,15.1v13.6c-0.4-0.1-0.8-0.2-1.2-0.2s-0.8,0.1-1.2,0.2V15.1c0-0.7,0.5-1.2,1.2-1.2c0.3,0,0.6,0.1,0.8,0.4   C34.1,14.5,34.2,14.8,34.2,15.1z"
   id="path2" />
	<path
   class="st0"
   d="m 20.533885,27.248257 c 0.334803,-0.371358 0.825461,-0.467563 1.275709,-0.250132 l 7.929383,3.540464 c -0.492584,0.606104 -0.750423,1.369988 -0.910131,2.114631 l -8.027514,-3.521224 c -0.567621,-0.296321 -0.800439,-0.964 -0.60225,-1.51238 0.157781,-0.234745 0.236672,-0.352118 0.334803,-0.371359 z"
   id="path3" />
	<circle
   class="st0"
   cx="33"
   cy="33"
   r="2.6"
   id="circle3" />
	<g
   id="g7">
		<path
   class="st0"
   d="M33,9.9c0.5,0,0.8-0.4,0.8-0.8V6.5c0-0.5-0.4-0.8-0.8-0.8s-0.8,0.4-0.8,0.8v2.5C32.2,9.5,32.5,9.9,33,9.9z"
   id="path4" />
		<path
   class="st0"
   d="M9.1,32.2H6.6c-0.5,0-0.8,0.4-0.8,0.8c0,0.5,0.4,0.8,0.8,0.8h2.5c0.5,0,0.8-0.4,0.8-0.8    C10,32.5,9.6,32.2,9.1,32.2z"
   id="path5" />
		<path
   class="st0"
   d="M33.1,56c-0.5,0-0.8,0.4-0.8,0.8v2.5c0,0.5,0.4,0.8,0.8,0.8s0.8-0.4,0.8-0.8v-2.5C33.9,56.4,33.6,56,33.1,56z    "
   id="path6" />
		<path
   class="st0"
   d="M59.5,32.1h-2.5c-0.5,0-0.8,0.4-0.8,0.8c0,0.5,0.4,0.8,0.8,0.8h2.5c0.5,0,0.8-0.4,0.8-0.8    C60.3,32.5,59.9,32.1,59.5,32.1z"
   id="path7" />
	</g>
</g>
</svg>
